ffmpeg version 4.2.4-1ubuntu0.1 Copyright (c) 2000-2020 the FFmpeg developers
  built with gcc 9 (Ubuntu 9.3.0-10ubuntu2)
  configuration: --prefix=/usr --extra-version=1ubuntu0.1 --toolchain=hardened --libdir=/usr/lib/x86_64-linux-gnu --incdir=/usr/include/x86_64-linux-gnu --arch=amd64 --enable-gpl --disable-stripping --enable-avresample --disable-filter=resample --enable-avisynth --enable-gnutls --enable-ladspa --enable-libaom --enable-libass --enable-libbluray --enable-libbs2b --enable-libcaca --enable-libcdio --enable-libcodec2 --enable-libflite --enable-libfontconfig --enable-libfreetype --enable-libfribidi --enable-libgme --enable-libgsm --enable-libjack --enable-libmp3lame --enable-libmysofa --enable-libopenjpeg --enable-libopenmpt --enable-libopus --enable-libpulse --enable-librsvg --enable-librubberband --enable-libshine --enable-libsnappy --enable-libsoxr --enable-libspeex --enable-libssh --enable-libtheora --enable-libtwolame --enable-libvidstab --enable-libvorbis --enable-libvpx --enable-libwavpack --enable-libwebp --enable-libx265 --enable-libxml2 --enable-libxvid --enable-libzmq --enable-libzvbi --enable-lv2 --enable-omx --enable-openal --enable-opencl --enable-opengl --enable-sdl2 --enable-libdc1394 --enable-libdrm --enable-libiec61883 --enable-nvenc --enable-chromaprint --enable-frei0r --enable-libx264 --enable-shared
  libavutil      56. 31.100 / 56. 31.100
  libavcodec     58. 54.100 / 58. 54.100
  libavformat    58. 29.100 / 58. 29.100
  libavdevice    58.  8.100 / 58.  8.100
  libavfilter     7. 57.100 /  7. 57.100
  libavresample   4.  0.  0 /  4.  0.  0
  libswscale      5.  5.100 /  5.  5.100
  libswresample   3.  5.100 /  3.  5.100
  libpostproc    55.  5.100 / 55.  5.100
Routing option strict to both codec and muxer layer
[h264 @ 0x5619bc60ce00] Reinit context to 640x352, pix_fmt: yuv420p
Input #0, mov,mp4,m4a,3gp,3g2,mj2, from '/var/www/html/project/media/video/original/VID-20220117-WA0034.mp4':
  Metadata:
    major_brand     : mp42
    minor_version   : 0
    compatible_brands: mp42isom
  Duration: 00:00:14.28, start: 0.000000, bitrate: 2141 kb/s
    Stream #0:0(und): Video: h264 (Baseline), 1 reference frame (avc1 / 0x31637661), yuv420p(tv, unknown/bt470bg/unknown, left), 640x352, 2016 kb/s, 25.51 fps, 25 tbr, 90k tbn, 180k tbc (default)
    Stream #0:1(und): Audio: aac (LC) (mp4a / 0x6134706D), 48000 Hz, mono, fltp, 127 kb/s (default)
Input #1, png_pipe, from '/var/www/html/project/static/images/templates/logo.png':
  Duration: N/A, bitrate: N/A
    Stream #1:0: Video: png, 1 reference frame, rgba(pc), 1920x1080 [SAR 2835:2835 DAR 16:9], 25 tbr, 25 tbn, 25 tbc
[Parsed_scale_0 @ 0x5619bc71bbc0] w:1280 h:720 flags:'bilinear' interl:0
[Parsed_scale_2 @ 0x5619bc63acc0] w:1280 h:720 flags:'bilinear' interl:0
Stream mapping:
  Stream #0:0 (h264) -> scale (graph 0)
  Stream #1:0 (png) -> scale (graph 0)
  overlay (graph 0) -> Stream #0:0 (libx264)
  Stream #0:1 -> #0:1 (aac (native) -> aac (native))
Press [q] to stop, [?] for help
[h264 @ 0x5619bc6434c0] Reinit context to 640x352, pix_fmt: yuv420p
[graph_1_in_0_1 @ 0x5619bca96840] tb:1/48000 samplefmt:fltp samplerate:48000 chlayout:0x4
[Parsed_scale_0 @ 0x5619bcb2c9c0] w:1280 h:720 flags:'bilinear' interl:0
[Parsed_scale_2 @ 0x5619bcbf29c0] w:1280 h:720 flags:'bilinear' interl:0
[graph 0 input from stream 0:0 @ 0x5619bcbf3200] w:640 h:352 pixfmt:yuv420p tb:1/90000 fr:25/1 sar:0/1 sws_param:flags=2
[graph 0 input from stream 1:0 @ 0x5619bcbf4100] w:1920 h:1080 pixfmt:rgba tb:1/25 fr:25/1 sar:2835/2835 sws_param:flags=2
[Parsed_scale_0 @ 0x5619bcb2c9c0] w:640 h:352 fmt:yuv420p sar:0/1 -> w:1280 h:720 fmt:yuv420p sar:0/1 flags:0x2
[Parsed_setsar_1 @ 0x5619bcbf2180] w:1280 h:720 sar:0/1 dar:16/9 -> sar:1/1 dar:16/9
[Parsed_scale_2 @ 0x5619bcbf29c0] w:1920 h:1080 fmt:rgba sar:2835/2835 -> w:1280 h:720 fmt:yuva420p sar:1/1 flags:0x2
[Parsed_setsar_3 @ 0x5619bcbf3440] w:1280 h:720 sar:1/1 dar:16/9 -> sar:1/1 dar:16/9
[Parsed_overlay_4 @ 0x5619bcbf3a00] main w:1280 h:720 fmt:yuv420p overlay w:1280 h:720 fmt:yuva420p
[Parsed_overlay_4 @ 0x5619bcbf3a00] [framesync @ 0x5619bcbf2828] Selected 1/90000 time base
[Parsed_overlay_4 @ 0x5619bcbf3a00] [framesync @ 0x5619bcbf2828] Sync level 2
[libx264 @ 0x5619bc6ece80] using SAR=1/1
[libx264 @ 0x5619bc6ece80] using cpu capabilities: MMX2 SSE2Fast SSSE3 SSE4.2 AVX FMA3 BMI2 AVX2
[libx264 @ 0x5619bc6ece80] profile High, level 3.1
[libx264 @ 0x5619bc6ece80] 264 - core 155 r2917 0a84d98 - H.264/MPEG-4 AVC codec - Copyleft 2003-2018 - http://www.videolan.org/x264.html - options: cabac=1 ref=1 deblock=1:0:0 analyse=0x3:0x113 me=hex subme=2 psy=1 psy_rd=1.00:0.00 mixed_ref=0 me_range=16 chroma_me=1 trellis=0 8x8dct=1 cqm=0 deadzone=21,11 fast_pskip=1 chroma_qp_offset=0 threads=22 lookahead_threads=5 sliced_threads=0 nr=0 decimate=1 interlaced=0 bluray_compat=0 constrained_intra=0 bframes=3 b_pyramid=2 b_adapt=1 b_bias=0 direct=1 weightb=1 open_gop=0 weightp=1 keyint=250 keyint_min=25 scenecut=40 intra_refresh=0 rc_lookahead=10 rc=crf mbtree=1 crf=18.0 qcomp=0.60 qpmin=0 qpmax=69 qpstep=4 ip_ratio=1.40 aq=1:1.00
Output #0, mp4, to '/var/www/html/project/media/video/watermarks/VID-20220117-WA0034.mp4':
  Metadata:
    major_brand     : mp42
    minor_version   : 0
    compatible_brands: mp42isom
    encoder         : Lavf58.29.100
    Stream #0:0: Video: h264 (libx264), 1 reference frame (avc1 / 0x31637661), yuv420p, 1280x720 [SAR 1:1 DAR 16:9], q=-1--1, 25 fps, 12800 tbn, 25 tbc (default)
    Metadata:
      encoder         : Lavc58.54.100 libx264
    Side data:
      cpb: bitrate max/min/avg: 0/0/0 buffer size: 0 vbv_delay: -1
    Stream #0:1(und): Audio: aac (LC) (mp4a / 0x6134706D), 48000 Hz, mono, fltp, delay 1024, 69 kb/s (default)
    Metadata:
      encoder         : Lavc58.54.100 aac
Past duration 0.639153 too large
Past duration 0.794441 too large
Past duration 0.949715 too large
Past duration 0.881386 too large
*** dropping frame 313 from stream 0 at ts 311
Past duration 0.815819 too large
*** dropping frame 318 from stream 0 at ts 316
Past duration 0.971382 too large
Past duration 0.904716 too large
*** dropping frame 324 from stream 0 at ts 322
Past duration 0.838051 too large
*** dropping frame 329 from stream 0 at ts 327
Past duration 0.993599 too large
Past duration 0.771385 too large
*** dropping frame 334 from stream 0 at ts 332
Past duration 0.926933 too large
Past duration 0.857491 too large
*** dropping frame 340 from stream 0 at ts 338
[Parsed_overlay_4 @ 0x5619bcbf3a00] [framesync @ 0x5619bcbf2828] Sync level 0
No more output streams to write to, finishing.
frame=  357 fps=200 q=-1.0 Lsize=    5084kB time=00:00:14.27 bitrate=2916.6kbits/s dup=0 drop=6 speed=   8x    
[AVIOContext @ 0x5619bc60b0c0] Statistics: 0 seeks, 4 writeouts
video:4949kB audio:123kB subtitle:0kB other streams:0kB global headers:0kB muxing overhead: 0.229593%
Input file #0 (/var/www/html/project/media/video/original/VID-20220117-WA0034.mp4):
  Input stream #0:0 (video): 363 packets read (3586932 bytes); 363 frames decoded; 
  Input stream #0:1 (audio): 669 packets read (228380 bytes); 669 frames decoded (685056 samples); 
  Total: 1032 packets (3815312 bytes) demuxed
Input file #1 (/var/www/html/project/static/images/templates/logo.png):
  Input stream #1:0 (video): 1 packets read (111578 bytes); 1 frames decoded; 
  Total: 1 packets (111578 bytes) demuxed
Output file #0 (/var/www/html/project/media/video/watermarks/VID-20220117-WA0034.mp4):
  Output stream #0:0 (video): 357 frames encoded; 357 packets muxed (5068099 bytes); 
  Output stream #0:1 (audio): 669 frames encoded (685056 samples); 670 packets muxed (125878 bytes); 
  Total: 1027 packets (5193977 bytes) muxed
[AVIOContext @ 0x5619bc6ed8c0] Statistics: 2 seeks, 23 writeouts
[libx264 @ 0x5619bc6ece80] frame I:2     Avg QP:13.51  size: 41080
[libx264 @ 0x5619bc6ece80] frame P:148   Avg QP:14.96  size: 19512
[libx264 @ 0x5619bc6ece80] frame B:207   Avg QP:17.31  size: 10133
[libx264 @ 0x5619bc6ece80] consecutive B-frames: 16.5% 12.9% 16.8% 53.8%
[libx264 @ 0x5619bc6ece80] mb I  I16..4: 39.7% 37.6% 22.7%
[libx264 @ 0x5619bc6ece80] mb P  I16..4: 24.5% 20.7%  3.9%  P16..4: 14.8%  8.8%  4.7%  0.0%  0.0%    skip:22.5%
[libx264 @ 0x5619bc6ece80] mb B  I16..4:  4.2%  5.0%  0.4%  B16..8: 24.4% 10.7%  1.6%  direct:12.7%  skip:41.1%  L0:46.4% L1:42.1% BI:11.6%
[libx264 @ 0x5619bc6ece80] 8x8 transform intra:44.3% inter:29.3%
[libx264 @ 0x5619bc6ece80] coded y,uvDC,uvAC intra: 35.4% 59.7% 24.5% inter: 10.0% 32.7% 1.4%
[libx264 @ 0x5619bc6ece80] i16 v,h,dc,p: 72% 15%  6%  7%
[libx264 @ 0x5619bc6ece80] i8 v,h,dc,ddl,ddr,vr,hd,vl,hu: 28% 31% 16%  3%  4%  4%  6%  4%  4%
[libx264 @ 0x5619bc6ece80] i4 v,h,dc,ddl,ddr,vr,hd,vl,hu: 27% 26% 12%  5%  7%  6%  9%  5%  4%
[libx264 @ 0x5619bc6ece80] i8c dc,h,v,p: 43% 21% 27% 10%
[libx264 @ 0x5619bc6ece80] Weighted P-Frames: Y:0.7% UV:0.0%
[libx264 @ 0x5619bc6ece80] kb/s:2838.89
[aac @ 0x5619bc639040] Qavg: 301.621
[AVIOContext @ 0x5619bc614040] Statistics: 3852533 bytes read, 0 seeks
[AVIOContext @ 0x5619bc70b880] Statistics: 111578 bytes read, 0 seeks
